<mxfile host="app.diagrams.net" agent="Mozilla/5.0 (Macintosh; Intel Mac OS X 10_15_7) AppleWebKit/537.36 (KHTML, like Gecko) Chrome/131.0.0.0 Safari/537.36" version="26.0.9">
  <diagram name="Page-1" id="74e2e168-ea6b-b213-b513-2b3c1d86103e">
    <mxGraphModel dx="1330" dy="1801" grid="1" gridSize="10" guides="1" tooltips="1" connect="1" arrows="1" fold="1" page="1" pageScale="1" pageWidth="1100" pageHeight="850" background="none" math="0" shadow="0">
      <root>
        <mxCell id="0" />
        <mxCell id="1" parent="0" />
        <mxCell id="77e6c97f196da883-8" value="&lt;font style=&quot;font-size: 12px;&quot;&gt;Platform Start&lt;/font&gt;" style="rounded=1;whiteSpace=wrap;html=1;shadow=0;labelBackgroundColor=none;strokeWidth=1;fontFamily=Verdana;fontSize=8;align=center;fillColor=#d5e8d4;strokeColor=#82b366;" parent="1" vertex="1">
          <mxGeometry x="199.99" y="-780" width="140" height="60" as="geometry" />
        </mxCell>
        <mxCell id="durezIww0VH9O7LVAkZU-2" value="&lt;font style=&quot;font-size: 12px;&quot;&gt;Select User (Child/Parent)&lt;/font&gt;" style="rounded=1;whiteSpace=wrap;html=1;shadow=0;labelBackgroundColor=none;strokeWidth=1;fontFamily=Verdana;fontSize=8;align=center;fillColor=#d5e8d4;strokeColor=#82b366;" vertex="1" parent="1">
          <mxGeometry x="199.99" y="-670" width="140" height="60" as="geometry" />
        </mxCell>
        <mxCell id="durezIww0VH9O7LVAkZU-3" value="&lt;font style=&quot;font-size: 12px;&quot;&gt;Log In or Create Account&lt;/font&gt;" style="rounded=1;whiteSpace=wrap;html=1;shadow=0;labelBackgroundColor=none;strokeWidth=1;fontFamily=Verdana;fontSize=8;align=center;fillColor=#d5e8d4;strokeColor=#82b366;" vertex="1" parent="1">
          <mxGeometry x="199.99" y="-560" width="140" height="60" as="geometry" />
        </mxCell>
        <mxCell id="durezIww0VH9O7LVAkZU-4" value="&lt;font style=&quot;font-size: 12px;&quot;&gt;Child Selects a Story&lt;/font&gt;" style="rounded=1;whiteSpace=wrap;html=1;shadow=0;labelBackgroundColor=none;strokeWidth=1;fontFamily=Verdana;fontSize=8;align=center;fillColor=#d5e8d4;strokeColor=#82b366;" vertex="1" parent="1">
          <mxGeometry x="199.99" y="-450" width="140" height="60" as="geometry" />
        </mxCell>
        <mxCell id="durezIww0VH9O7LVAkZU-5" value="&lt;font style=&quot;font-size: 12px;&quot;&gt;Begins Reading Aloud&lt;/font&gt;" style="rounded=1;whiteSpace=wrap;html=1;shadow=0;labelBackgroundColor=none;strokeWidth=1;fontFamily=Verdana;fontSize=8;align=center;fillColor=#d5e8d4;strokeColor=#82b366;" vertex="1" parent="1">
          <mxGeometry x="199.99" y="-340" width="140" height="60" as="geometry" />
        </mxCell>
        <mxCell id="durezIww0VH9O7LVAkZU-57" value="" style="edgeStyle=orthogonalEdgeStyle;rounded=0;orthogonalLoop=1;jettySize=auto;html=1;" edge="1" parent="1" source="durezIww0VH9O7LVAkZU-6" target="durezIww0VH9O7LVAkZU-55">
          <mxGeometry relative="1" as="geometry" />
        </mxCell>
        <mxCell id="durezIww0VH9O7LVAkZU-6" value="&lt;font style=&quot;font-size: 12px;&quot;&gt;Highlighted Word&lt;/font&gt;" style="rounded=1;whiteSpace=wrap;html=1;shadow=0;labelBackgroundColor=none;strokeWidth=1;fontFamily=Verdana;fontSize=8;align=center;fillColor=#fff2cc;strokeColor=#d6b656;" vertex="1" parent="1">
          <mxGeometry x="199.99" y="-230" width="140" height="60" as="geometry" />
        </mxCell>
        <mxCell id="durezIww0VH9O7LVAkZU-7" value="&lt;span style=&quot;color: rgb(28, 28, 30); background-color: transparent;&quot;&gt;&lt;font style=&quot;font-size: 12px;&quot;&gt;AI Verif﻿ies Pro&lt;span class=&quot;ql-cursor&quot;&gt;﻿&lt;/span&gt;nunciation&lt;/font&gt;&lt;/span&gt;" style="rounded=1;whiteSpace=wrap;html=1;shadow=0;labelBackgroundColor=none;strokeWidth=1;fontFamily=Verdana;fontSize=8;align=center;fillColor=#d5e8d4;strokeColor=#82b366;" vertex="1" parent="1">
          <mxGeometry x="200" y="20" width="140" height="60" as="geometry" />
        </mxCell>
        <mxCell id="durezIww0VH9O7LVAkZU-8" value="&lt;span style=&quot;color: rgb(28, 28, 30); background-color: transparent;&quot;&gt;&lt;font style=&quot;font-size: 12px;&quot;&gt;AI Verif﻿ies Pro&lt;span style=&quot;&quot; class=&quot;ql-cursor&quot;&gt;﻿&lt;/span&gt;nunciation&lt;/font&gt;&lt;/span&gt;" style="rounded=1;whiteSpace=wrap;html=1;shadow=0;labelBackgroundColor=none;strokeWidth=1;fontFamily=Verdana;fontSize=8;align=center;fillColor=#d5e8d4;strokeColor=#82b366;" vertex="1" parent="1">
          <mxGeometry x="379" y="20" width="140" height="60" as="geometry" />
        </mxCell>
        <mxCell id="durezIww0VH9O7LVAkZU-14" value="" style="endArrow=classic;html=1;rounded=0;exitX=0.5;exitY=1;exitDx=0;exitDy=0;entryX=0.5;entryY=0;entryDx=0;entryDy=0;" edge="1" parent="1" source="77e6c97f196da883-8" target="durezIww0VH9O7LVAkZU-2">
          <mxGeometry width="50" height="50" relative="1" as="geometry">
            <mxPoint x="259.99" y="-570" as="sourcePoint" />
            <mxPoint x="309.99" y="-620" as="targetPoint" />
          </mxGeometry>
        </mxCell>
        <mxCell id="durezIww0VH9O7LVAkZU-15" value="" style="endArrow=classic;html=1;rounded=0;exitX=0.5;exitY=1;exitDx=0;exitDy=0;entryX=0.5;entryY=0;entryDx=0;entryDy=0;" edge="1" parent="1">
          <mxGeometry width="50" height="50" relative="1" as="geometry">
            <mxPoint x="269.77" y="-610" as="sourcePoint" />
            <mxPoint x="269.77" y="-560" as="targetPoint" />
          </mxGeometry>
        </mxCell>
        <mxCell id="durezIww0VH9O7LVAkZU-16" value="" style="endArrow=classic;html=1;rounded=0;exitX=0.5;exitY=1;exitDx=0;exitDy=0;entryX=0.5;entryY=0;entryDx=0;entryDy=0;" edge="1" parent="1">
          <mxGeometry width="50" height="50" relative="1" as="geometry">
            <mxPoint x="269.77" y="-500" as="sourcePoint" />
            <mxPoint x="269.77" y="-450" as="targetPoint" />
          </mxGeometry>
        </mxCell>
        <mxCell id="durezIww0VH9O7LVAkZU-17" value="" style="endArrow=classic;html=1;rounded=0;exitX=0.5;exitY=1;exitDx=0;exitDy=0;entryX=0.5;entryY=0;entryDx=0;entryDy=0;" edge="1" parent="1">
          <mxGeometry width="50" height="50" relative="1" as="geometry">
            <mxPoint x="269.77" y="-390" as="sourcePoint" />
            <mxPoint x="269.77" y="-340" as="targetPoint" />
          </mxGeometry>
        </mxCell>
        <mxCell id="durezIww0VH9O7LVAkZU-18" value="" style="endArrow=classic;html=1;rounded=0;exitX=0.5;exitY=1;exitDx=0;exitDy=0;entryX=0.5;entryY=0;entryDx=0;entryDy=0;" edge="1" parent="1" target="durezIww0VH9O7LVAkZU-6">
          <mxGeometry width="50" height="50" relative="1" as="geometry">
            <mxPoint x="269.77" y="-280" as="sourcePoint" />
            <mxPoint x="270" y="-250" as="targetPoint" />
          </mxGeometry>
        </mxCell>
        <mxCell id="durezIww0VH9O7LVAkZU-19" value="" style="endArrow=classic;html=1;rounded=0;exitX=0.5;exitY=1;exitDx=0;exitDy=0;entryX=0.5;entryY=0;entryDx=0;entryDy=0;" edge="1" parent="1">
          <mxGeometry width="50" height="50" relative="1" as="geometry">
            <mxPoint x="269.57" y="-170" as="sourcePoint" />
            <mxPoint x="269.57" y="-120" as="targetPoint" />
          </mxGeometry>
        </mxCell>
        <mxCell id="durezIww0VH9O7LVAkZU-20" value="" style="endArrow=classic;html=1;rounded=0;entryX=0.5;entryY=0;entryDx=0;entryDy=0;exitX=0.5;exitY=1;exitDx=0;exitDy=0;exitPerimeter=0;" edge="1" parent="1" source="durezIww0VH9O7LVAkZU-55">
          <mxGeometry width="50" height="50" relative="1" as="geometry">
            <mxPoint x="270" y="-20" as="sourcePoint" />
            <mxPoint x="269.78" y="20" as="targetPoint" />
          </mxGeometry>
        </mxCell>
        <mxCell id="durezIww0VH9O7LVAkZU-21" value="" style="endArrow=classic;html=1;rounded=0;exitX=0.5;exitY=1;exitDx=0;exitDy=0;entryX=0.5;entryY=0;entryDx=0;entryDy=0;" edge="1" parent="1">
          <mxGeometry width="50" height="50" relative="1" as="geometry">
            <mxPoint x="269.57" y="80" as="sourcePoint" />
            <mxPoint x="269.57" y="130" as="targetPoint" />
          </mxGeometry>
        </mxCell>
        <mxCell id="durezIww0VH9O7LVAkZU-22" value="" style="endArrow=classic;html=1;rounded=0;exitX=0.5;exitY=1;exitDx=0;exitDy=0;entryX=0.5;entryY=0;entryDx=0;entryDy=0;" edge="1" parent="1">
          <mxGeometry width="50" height="50" relative="1" as="geometry">
            <mxPoint x="448.57" y="80" as="sourcePoint" />
            <mxPoint x="448.57" y="130" as="targetPoint" />
          </mxGeometry>
        </mxCell>
        <mxCell id="durezIww0VH9O7LVAkZU-23" value="" style="endArrow=classic;html=1;rounded=0;exitX=0.5;exitY=1;exitDx=0;exitDy=0;entryX=0.5;entryY=0;entryDx=0;entryDy=0;exitPerimeter=0;" edge="1" parent="1" source="durezIww0VH9O7LVAkZU-58">
          <mxGeometry width="50" height="50" relative="1" as="geometry">
            <mxPoint x="270" y="240" as="sourcePoint" />
            <mxPoint x="270" y="290" as="targetPoint" />
          </mxGeometry>
        </mxCell>
        <mxCell id="durezIww0VH9O7LVAkZU-24" value="" style="endArrow=classic;html=1;rounded=0;exitX=0.5;exitY=1;exitDx=0;exitDy=0;entryX=0.5;entryY=0;entryDx=0;entryDy=0;exitPerimeter=0;" edge="1" parent="1" source="durezIww0VH9O7LVAkZU-59">
          <mxGeometry width="50" height="50" relative="1" as="geometry">
            <mxPoint x="449" y="240" as="sourcePoint" />
            <mxPoint x="449" y="290" as="targetPoint" />
          </mxGeometry>
        </mxCell>
        <mxCell id="durezIww0VH9O7LVAkZU-25" value="&lt;span style=&quot;background-color: transparent; color: rgb(28, 28, 30);&quot;&gt;&lt;font style=&quot;font-size: 12px;&quot;&gt;Progress Saved - Feedback and Re﻿try&lt;/font&gt;&lt;/span&gt;" style="rounded=1;whiteSpace=wrap;html=1;shadow=0;labelBackgroundColor=none;strokeWidth=1;fontFamily=Verdana;fontSize=8;align=center;fillColor=#d5e8d4;strokeColor=#82b366;" vertex="1" parent="1">
          <mxGeometry x="200" y="290" width="140" height="60" as="geometry" />
        </mxCell>
        <mxCell id="durezIww0VH9O7LVAkZU-26" value="&lt;span style=&quot;background-color: transparent; color: rgb(28, 28, 30);&quot;&gt;&lt;font style=&quot;font-size: 12px;&quot;&gt;Progress Saved&amp;nbsp;&lt;/font&gt;&lt;/span&gt;" style="rounded=1;whiteSpace=wrap;html=1;shadow=0;labelBackgroundColor=none;strokeWidth=1;fontFamily=Verdana;fontSize=8;align=center;fillColor=#d5e8d4;strokeColor=#82b366;" vertex="1" parent="1">
          <mxGeometry x="379" y="290" width="140" height="60" as="geometry" />
        </mxCell>
        <mxCell id="durezIww0VH9O7LVAkZU-31" value="" style="endArrow=classic;html=1;rounded=0;exitX=0.5;exitY=1;exitDx=0;exitDy=0;entryX=0.5;entryY=0;entryDx=0;entryDy=0;" edge="1" parent="1" source="durezIww0VH9O7LVAkZU-26">
          <mxGeometry width="50" height="50" relative="1" as="geometry">
            <mxPoint x="489.57" y="460" as="sourcePoint" />
            <mxPoint x="270.0050000000001" y="410" as="targetPoint" />
            <Array as="points">
              <mxPoint x="450" y="410" />
            </Array>
          </mxGeometry>
        </mxCell>
        <mxCell id="durezIww0VH9O7LVAkZU-33" value="" style="endArrow=classic;html=1;rounded=0;entryX=1;entryY=0.5;entryDx=0;entryDy=0;exitX=0.698;exitY=0.197;exitDx=0;exitDy=0;exitPerimeter=0;" edge="1" parent="1" source="durezIww0VH9O7LVAkZU-56" target="durezIww0VH9O7LVAkZU-6">
          <mxGeometry width="50" height="50" relative="1" as="geometry">
            <mxPoint x="308.7258800000002" y="440.03" as="sourcePoint" />
            <mxPoint x="600" y="-210" as="targetPoint" />
            <Array as="points">
              <mxPoint x="540" y="430" />
              <mxPoint x="540" y="-200" />
            </Array>
          </mxGeometry>
        </mxCell>
        <mxCell id="durezIww0VH9O7LVAkZU-34" value="" style="endArrow=classic;html=1;rounded=0;entryX=0;entryY=0.5;entryDx=0;entryDy=0;" edge="1" parent="1" target="durezIww0VH9O7LVAkZU-6">
          <mxGeometry width="50" height="50" relative="1" as="geometry">
            <mxPoint x="260" y="410" as="sourcePoint" />
            <mxPoint x="-73.33999999999997" y="-220" as="targetPoint" />
            <Array as="points">
              <mxPoint x="40" y="410" />
              <mxPoint x="40" y="-200" />
            </Array>
          </mxGeometry>
        </mxCell>
        <mxCell id="durezIww0VH9O7LVAkZU-35" value="" style="endArrow=classic;html=1;rounded=0;exitX=0.5;exitY=1;exitDx=0;exitDy=0;" edge="1" parent="1" source="durezIww0VH9O7LVAkZU-25">
          <mxGeometry width="50" height="50" relative="1" as="geometry">
            <mxPoint x="270" y="350" as="sourcePoint" />
            <mxPoint x="270" y="410" as="targetPoint" />
          </mxGeometry>
        </mxCell>
        <mxCell id="durezIww0VH9O7LVAkZU-36" value="" style="endArrow=classic;html=1;rounded=0;exitX=0;exitY=0.5;exitDx=0;exitDy=0;entryX=0;entryY=0.5;entryDx=0;entryDy=0;entryPerimeter=0;" edge="1" parent="1" source="durezIww0VH9O7LVAkZU-25" target="durezIww0VH9O7LVAkZU-55">
          <mxGeometry width="50" height="50" relative="1" as="geometry">
            <mxPoint x="240" y="200" as="sourcePoint" />
            <mxPoint x="196.6500000000001" y="-75" as="targetPoint" />
            <Array as="points">
              <mxPoint x="140" y="320" />
              <mxPoint x="140" y="-70" />
            </Array>
          </mxGeometry>
        </mxCell>
        <mxCell id="durezIww0VH9O7LVAkZU-37" value="" style="endArrow=classic;html=1;rounded=0;entryX=0.5;entryY=0;entryDx=0;entryDy=0;exitX=1;exitY=0.5;exitDx=0;exitDy=0;exitPerimeter=0;" edge="1" parent="1" source="durezIww0VH9O7LVAkZU-55" target="durezIww0VH9O7LVAkZU-8">
          <mxGeometry width="50" height="50" relative="1" as="geometry">
            <mxPoint x="340" y="-75" as="sourcePoint" />
            <mxPoint x="470" y="30" as="targetPoint" />
            <Array as="points">
              <mxPoint x="450" y="-70" />
            </Array>
          </mxGeometry>
        </mxCell>
        <mxCell id="durezIww0VH9O7LVAkZU-38" value="&lt;font style=&quot;font-size: 12px;&quot;&gt;Story completed&lt;/font&gt;" style="rounded=1;whiteSpace=wrap;html=1;shadow=0;labelBackgroundColor=none;strokeWidth=1;fontFamily=Verdana;fontSize=8;align=center;fillColor=#d5e8d4;strokeColor=#82b366;" vertex="1" parent="1">
          <mxGeometry x="90" y="520" width="140" height="60" as="geometry" />
        </mxCell>
        <mxCell id="durezIww0VH9O7LVAkZU-39" value="&lt;font style=&quot;font-size: 12px;&quot;&gt;Story incompleted&lt;/font&gt;" style="rounded=1;whiteSpace=wrap;html=1;shadow=0;labelBackgroundColor=none;strokeWidth=1;fontFamily=Verdana;fontSize=8;align=center;fillColor=#d5e8d4;strokeColor=#82b366;" vertex="1" parent="1">
          <mxGeometry x="310" y="520" width="140" height="60" as="geometry" />
        </mxCell>
        <mxCell id="durezIww0VH9O7LVAkZU-40" value="" style="endArrow=classic;html=1;rounded=0;exitX=0.5;exitY=1;exitDx=0;exitDy=0;entryX=0.5;entryY=0;entryDx=0;entryDy=0;" edge="1" parent="1">
          <mxGeometry width="50" height="50" relative="1" as="geometry">
            <mxPoint x="160" y="580" as="sourcePoint" />
            <mxPoint x="160" y="630" as="targetPoint" />
          </mxGeometry>
        </mxCell>
        <mxCell id="durezIww0VH9O7LVAkZU-41" value="" style="endArrow=classic;html=1;rounded=0;exitX=0.5;exitY=1;exitDx=0;exitDy=0;entryX=0.5;entryY=0;entryDx=0;entryDy=0;" edge="1" parent="1">
          <mxGeometry width="50" height="50" relative="1" as="geometry">
            <mxPoint x="380" y="580" as="sourcePoint" />
            <mxPoint x="380" y="630" as="targetPoint" />
          </mxGeometry>
        </mxCell>
        <mxCell id="durezIww0VH9O7LVAkZU-42" value="&lt;span style=&quot;color: rgb(28, 28, 30);&quot;&gt;&lt;font style=&quot;font-size: 12px;&quot;&gt;Parents review statistics (optional)&lt;/font&gt;&lt;/span&gt;" style="rounded=1;whiteSpace=wrap;html=1;shadow=0;labelBackgroundColor=none;strokeWidth=1;fontFamily=Verdana;fontSize=8;align=center;fillColor=#d5e8d4;strokeColor=#82b366;" vertex="1" parent="1">
          <mxGeometry x="90" y="630" width="140" height="60" as="geometry" />
        </mxCell>
        <mxCell id="durezIww0VH9O7LVAkZU-43" value="&lt;span style=&quot;color: rgb(28, 28, 30);&quot;&gt;&lt;font style=&quot;font-size: 12px;&quot;&gt;Parents review statistics (optional)&lt;/font&gt;&lt;/span&gt;" style="rounded=1;whiteSpace=wrap;html=1;shadow=0;labelBackgroundColor=none;strokeWidth=1;fontFamily=Verdana;fontSize=8;align=center;fillColor=#d5e8d4;strokeColor=#82b366;" vertex="1" parent="1">
          <mxGeometry x="310" y="630" width="140" height="60" as="geometry" />
        </mxCell>
        <mxCell id="durezIww0VH9O7LVAkZU-44" value="" style="endArrow=classic;html=1;rounded=0;exitX=0.5;exitY=1;exitDx=0;exitDy=0;entryX=0;entryY=0.5;entryDx=0;entryDy=0;" edge="1" parent="1" target="durezIww0VH9O7LVAkZU-46">
          <mxGeometry width="50" height="50" relative="1" as="geometry">
            <mxPoint x="160" y="690" as="sourcePoint" />
            <mxPoint x="160" y="740" as="targetPoint" />
            <Array as="points">
              <mxPoint x="160" y="750" />
            </Array>
          </mxGeometry>
        </mxCell>
        <mxCell id="durezIww0VH9O7LVAkZU-45" value="" style="endArrow=classic;html=1;rounded=0;exitX=0.5;exitY=1;exitDx=0;exitDy=0;entryX=1;entryY=0.5;entryDx=0;entryDy=0;" edge="1" parent="1" target="durezIww0VH9O7LVAkZU-46">
          <mxGeometry width="50" height="50" relative="1" as="geometry">
            <mxPoint x="380" y="690" as="sourcePoint" />
            <mxPoint x="380" y="740" as="targetPoint" />
            <Array as="points">
              <mxPoint x="380" y="750" />
            </Array>
          </mxGeometry>
        </mxCell>
        <mxCell id="durezIww0VH9O7LVAkZU-46" value="&lt;span style=&quot;color: rgb(28, 28, 30);&quot;&gt;&lt;font style=&quot;font-size: 12px;&quot;&gt;Select o&lt;span class=&quot;ql-cursor&quot;&gt;﻿&lt;/span&gt;ther story to read&lt;/font&gt;&lt;/span&gt;" style="rounded=1;whiteSpace=wrap;html=1;shadow=0;labelBackgroundColor=none;strokeWidth=1;fontFamily=Verdana;fontSize=8;align=center;fillColor=#d5e8d4;strokeColor=#82b366;" vertex="1" parent="1">
          <mxGeometry x="200" y="720" width="140" height="60" as="geometry" />
        </mxCell>
        <mxCell id="durezIww0VH9O7LVAkZU-47" value="" style="endArrow=classic;html=1;rounded=0;exitX=0;exitY=0.5;exitDx=0;exitDy=0;exitPerimeter=0;entryX=0.5;entryY=0;entryDx=0;entryDy=0;" edge="1" parent="1" source="durezIww0VH9O7LVAkZU-56" target="durezIww0VH9O7LVAkZU-38">
          <mxGeometry width="50" height="50" relative="1" as="geometry">
            <mxPoint x="196.67000000000007" y="460" as="sourcePoint" />
            <mxPoint x="160" y="555" as="targetPoint" />
            <Array as="points">
              <mxPoint x="160" y="460" />
            </Array>
          </mxGeometry>
        </mxCell>
        <mxCell id="durezIww0VH9O7LVAkZU-48" value="" style="endArrow=classic;html=1;rounded=0;exitX=1;exitY=0.5;exitDx=0;exitDy=0;entryX=0.5;entryY=0;entryDx=0;entryDy=0;exitPerimeter=0;" edge="1" parent="1" source="durezIww0VH9O7LVAkZU-56" target="durezIww0VH9O7LVAkZU-39">
          <mxGeometry width="50" height="50" relative="1" as="geometry">
            <mxPoint x="342.34000000000015" y="460" as="sourcePoint" />
            <mxPoint x="379" y="555" as="targetPoint" />
            <Array as="points">
              <mxPoint x="379" y="460" />
            </Array>
          </mxGeometry>
        </mxCell>
        <mxCell id="durezIww0VH9O7LVAkZU-49" value="&lt;font style=&quot;font-size: 16px;&quot;&gt;True&lt;/font&gt;" style="text;html=1;align=center;verticalAlign=middle;whiteSpace=wrap;rounded=0;" vertex="1" parent="1">
          <mxGeometry x="170" y="435" width="60" height="30" as="geometry" />
        </mxCell>
        <mxCell id="durezIww0VH9O7LVAkZU-50" value="&lt;font style=&quot;font-size: 16px;&quot;&gt;False&lt;/font&gt;" style="text;html=1;align=center;verticalAlign=middle;whiteSpace=wrap;rounded=0;" vertex="1" parent="1">
          <mxGeometry x="330" y="435" width="60" height="30" as="geometry" />
        </mxCell>
        <mxCell id="durezIww0VH9O7LVAkZU-51" value="&lt;font style=&quot;font-size: 16px;&quot;&gt;True&lt;/font&gt;" style="text;html=1;align=center;verticalAlign=middle;whiteSpace=wrap;rounded=0;" vertex="1" parent="1">
          <mxGeometry x="350" y="-104" width="60" height="30" as="geometry" />
        </mxCell>
        <mxCell id="durezIww0VH9O7LVAkZU-55" value="&lt;span style=&quot;font-family: Verdana;&quot;&gt;&lt;font style=&quot;font-size: 10px;&quot;&gt;Child Pronounces the Word&lt;/font&gt;&lt;/span&gt;" style="strokeWidth=2;html=1;shape=mxgraph.flowchart.decision;whiteSpace=wrap;fillColor=#e1d5e7;strokeColor=#9673a6;" vertex="1" parent="1">
          <mxGeometry x="219.99" y="-120" width="100" height="100" as="geometry" />
        </mxCell>
        <mxCell id="durezIww0VH9O7LVAkZU-56" value="&lt;span style=&quot;font-family: Verdana;&quot;&gt;&lt;font style=&quot;font-size: 10px;&quot;&gt;Continues reading&lt;/font&gt;&lt;/span&gt;" style="strokeWidth=2;html=1;shape=mxgraph.flowchart.decision;whiteSpace=wrap;fillColor=#e1d5e7;strokeColor=#9673a6;" vertex="1" parent="1">
          <mxGeometry x="220" y="410" width="100" height="100" as="geometry" />
        </mxCell>
        <mxCell id="durezIww0VH9O7LVAkZU-58" value="Incorrect" style="strokeWidth=2;html=1;shape=mxgraph.flowchart.start_2;whiteSpace=wrap;fillColor=#dae8fc;strokeColor=#6c8ebf;" vertex="1" parent="1">
          <mxGeometry x="219.99" y="130" width="100" height="100" as="geometry" />
        </mxCell>
        <mxCell id="durezIww0VH9O7LVAkZU-59" value="Correct" style="strokeWidth=2;html=1;shape=mxgraph.flowchart.start_2;whiteSpace=wrap;fillColor=#dae8fc;strokeColor=#6c8ebf;" vertex="1" parent="1">
          <mxGeometry x="399" y="130" width="100" height="100" as="geometry" />
        </mxCell>
      </root>
    </mxGraphModel>
  </diagram>
</mxfile>
